<svg width="64" height="64" viewBox="0 0 64 64" fill="none" xmlns="http://www.w3.org/2000/svg">
<path fill-rule="evenodd" clip-rule="evenodd" d="M29 35H5V59H29V35ZM24 40H10V54H24V40Z" fill="white"/>
<path fill-rule="evenodd" clip-rule="evenodd" d="M29 35H5V59H29V35ZM24 40H10V54H24V40Z" fill="white"/>
<path fill-rule="evenodd" clip-rule="evenodd" d="M59 35H35V59H59V35ZM54 40H40V54H54V40Z" fill="white"/>
<path fill-rule="evenodd" clip-rule="evenodd" d="M59 35H35V59H59V35ZM54 40H40V54H54V40Z" fill="white"/>
<path fill-rule="evenodd" clip-rule="evenodd" d="M32.1421 4L18 18.1421L32.1421 32.2843L46.2843 18.1421L32.1421 4ZM32.1421 9.89256L23.8926 18.1421L32.1421 26.3917L40.3917 18.1421L32.1421 9.89256Z" fill="white"/>
<path fill-rule="evenodd" clip-rule="evenodd" d="M32.1421 4L18 18.1421L32.1421 32.2843L46.2843 18.1421L32.1421 4ZM32.1421 9.89256L23.8926 18.1421L32.1421 26.3917L40.3917 18.1421L32.1421 9.89256Z" fill="white"/>
</svg>
