<svg width="64" height="64" viewBox="0 0 64 64" fill="none" xmlns="http://www.w3.org/2000/svg">
<path fill-rule="evenodd" clip-rule="evenodd" d="M8 8H56V56H8V8ZM22.8571 11.4286H11.4286V22.8571H22.8571V11.4286ZM37.7143 11.4286H26.2857V22.8571H37.7143V11.4286ZM52.5714 11.4286H41.1429V22.8571H52.5714V11.4286ZM22.8571 26.2857H11.4286V37.7143H22.8571V26.2857ZM37.7143 26.2857H26.2857V37.7143H37.7143V26.2857ZM52.5714 26.2857H41.1429V37.7143H52.5714V26.2857ZM22.8571 41.1429H11.4286V52.5714H22.8571V41.1429ZM37.7143 41.1429H26.2857V52.5714H37.7143V41.1429ZM52.5714 41.1429H41.1429V52.5714H52.5714V41.1429Z" fill="white"/>
</svg>
