<svg width="64" height="64" viewBox="0 0 64 64" fill="none" xmlns="http://www.w3.org/2000/svg">
<path fill-rule="evenodd" clip-rule="evenodd" d="M52 32C52 43.0457 43.0457 52 32 52C20.9543 52 12 43.0457 12 32C12 20.9543 20.9543 12 32 12C43.0457 12 52 20.9543 52 32ZM30.5 28.5H33.5V15.0653C41.692 15.7814 48.2186 22.308 48.9347 30.5H35.5V33.5H48.9347C48.2186 41.692 41.6921 48.2186 33.5 48.9347V35.5H30.5V48.9347C22.308 48.2186 15.7814 41.692 15.0653 33.5H28.5V30.5H15.0653C15.7814 22.308 22.308 15.7814 30.5 15.0653V28.5Z" fill="white"/>
</svg>
